<svg width="17" height="16" viewBox="0 0 17 16" fill="none" xmlns="http://www.w3.org/2000/svg">
<path d="M14.1954 0.278235C13.9851 0.0488106 13.6587 -0.0497201 13.3496 0.0241787L10.0926 0.804221C10.0457 0.81533 10.0043 0.841411 9.97455 0.877636L9.97051 0.88295C9.88175 0.991142 9.92411 1.15295 10.0578 1.20463C10.5732 1.40411 11.1224 1.49829 11.6338 1.72916C15.7447 3.58339 15.8975 9.22578 13.4474 12.4541C13.3244 12.6164 13.0571 12.5309 13.0551 12.3305C13.0369 10.5912 12.705 8.94275 11.8507 7.3701C10.2615 4.44603 6.29942 1.41618 2.822 3.42497C-0.788064 5.51008 0.376456 10.3483 2.50527 13.0598C3.20732 13.9539 5.28721 15.8892 6.45476 15.9955C7.67728 16.1071 8.8877 14.12 9.1666 13.1439C9.2604 12.8159 9.49089 12.1793 9.01933 12.1711C8.95225 12.1701 8.88972 12.2049 8.84937 12.2556C6.82596 14.7948 3.32937 11.2568 2.64246 9.18907C2.22436 7.93086 2.12853 5.9752 3.47462 5.20047C6.19049 3.63701 8.51902 7.71013 9.41322 9.60735C10.2524 11.3867 10.8072 13.2883 11.3025 15.1802L11.2833 15.1855C11.2954 15.215 11.306 15.2454 11.3141 15.2763C11.3267 15.2985 11.3368 15.3222 11.3469 15.3459C11.3933 15.3681 11.4351 15.3946 11.4734 15.4251C11.4966 15.4265 11.5203 15.428 11.542 15.4299C14.3109 15.6762 15.8884 11.9127 16.2738 9.78896C16.8321 6.71178 16.4356 2.72269 14.1959 0.279202L14.1954 0.278235Z" fill="#FCFAFF"/>
</svg>
